<?xml version="1.0" standalone="no"?>
<!DOCTYPE svg PUBLIC "-//W3C//DTD SVG 20010904//EN"
 "http://www.w3.org/TR/2001/REC-SVG-20010904/DTD/svg10.dtd">
<svg version="1.0" xmlns="http://www.w3.org/2000/svg"
 width="220.000000pt" height="220.000000pt" viewBox="0 0 220.000000 220.000000"
 preserveAspectRatio="xMidYMid meet">
<metadata>
Created by potrace 1.14, written by Peter Selinger 2001-2017
</metadata>
<g transform="translate(0.000000,220.000000) scale(0.100000,-0.100000)"
fill="#000000" stroke="none">
<path d="M372 1942 c-4 -1 -6 -17 -4 -36 4 -35 22 -50 72 -59 139 -27 134 -6
134 -597 -1 -767 -2 -808 -26 -832 -33 -33 -89 -53 -160 -57 -14 -1 -18 -10
-18 -45 0 -37 4 -46 22 -52 26 -8 697 -9 705 -1 3 3 7 22 10 41 4 33 2 36 -32
51 -21 8 -46 15 -56 15 -10 0 -37 7 -59 16 -71 29 -74 40 -75 357 l-1 277 31
0 c35 0 22 14 465 -530 200 -245 180 -229 280 -230 187 -3 326 1 338 8 7 5 15
20 17 34 6 31 -15 51 -70 68 -73 23 -115 54 -172 127 -12 15 -30 37 -40 48
-10 11 -56 67 -103 125 -47 58 -93 112 -102 121 -10 9 -18 20 -18 23 0 6 -74
101 -90 116 -3 3 -17 21 -30 40 -14 19 -35 45 -47 58 -13 13 -21 27 -18 32 5
8 73 25 88 22 4 -1 7 3 7 8 0 5 3 9 8 8 14 -4 80 23 92 37 7 8 16 12 21 9 5
-3 9 -1 9 5 0 5 8 12 18 15 30 10 115 99 105 110 -4 3 -1 6 5 6 9 0 35 57 38
85 0 6 5 19 9 30 9 21 11 154 2 195 -15 72 -57 149 -112 204 -60 60 -199 123
-317 142 -39 6 -908 12 -926 6z m758 -145 c128 -26 199 -71 241 -156 25 -49
27 -62 24 -155 -3 -113 -13 -142 -73 -200 -45 -45 -126 -85 -182 -91 -14 -2
-41 -6 -60 -10 -81 -16 -171 -22 -187 -12 -7 4 -11 577 -4 621 0 4 12 6 26 4
14 -3 25 -2 25 2 0 7 150 5 190 -3z"/>
</g>
</svg>
